<mxfile host="app.diagrams.net" modified="2022-10-11T13:04:18.600Z" agent="5.0 (Windows NT 10.0; Win64; x64) AppleWebKit/537.36 (KHTML, like Gecko) Chrome/105.0.0.0 Safari/537.36" etag="SK4os8b-x45z4_V366EE" version="20.4.0" type="github">
  <diagram id="bWDqubdVofMHzrGMLxlh" name="Page-1">
    <mxGraphModel dx="2031" dy="450" grid="1" gridSize="10" guides="1" tooltips="1" connect="1" arrows="1" fold="1" page="1" pageScale="1" pageWidth="1169" pageHeight="827" math="0" shadow="0">
      <root>
        <mxCell id="0" />
        <mxCell id="1" parent="0" />
        <mxCell id="YQfrQzXwqGvhJNOuVdr6-1" value="" style="shape=flexArrow;endArrow=classic;startArrow=classic;html=1;rounded=0;fillColor=#dae8fc;strokeColor=#6c8ebf;" parent="1" edge="1">
          <mxGeometry width="100" height="100" relative="1" as="geometry">
            <mxPoint x="-690" y="395" as="sourcePoint" />
            <mxPoint x="-690" y="175" as="targetPoint" />
          </mxGeometry>
        </mxCell>
        <mxCell id="YQfrQzXwqGvhJNOuVdr6-2" value="" style="shape=flexArrow;endArrow=classic;startArrow=classic;html=1;rounded=0;strokeWidth=0.5;fillColor=#dae8fc;strokeColor=#6c8ebf;" parent="1" edge="1">
          <mxGeometry width="100" height="100" relative="1" as="geometry">
            <mxPoint x="-390" y="284.74" as="sourcePoint" />
            <mxPoint x="-770" y="284.74" as="targetPoint" />
          </mxGeometry>
        </mxCell>
        <mxCell id="YQfrQzXwqGvhJNOuVdr6-3" value="&lt;b&gt;&lt;font color=&quot;#ff8000&quot; style=&quot;font-size: 14px;&quot;&gt;0&lt;/font&gt;&lt;/b&gt;" style="text;html=1;align=center;verticalAlign=middle;resizable=0;points=[];autosize=1;strokeColor=none;fillColor=none;" parent="1" vertex="1">
          <mxGeometry x="-725" y="380" width="30" height="30" as="geometry" />
        </mxCell>
        <mxCell id="YQfrQzXwqGvhJNOuVdr6-4" value="&lt;font color=&quot;#ff8000&quot; style=&quot;font-size: 14px;&quot;&gt;&lt;b style=&quot;&quot;&gt;1&lt;/b&gt;&lt;/font&gt;" style="text;html=1;align=center;verticalAlign=middle;resizable=0;points=[];autosize=1;strokeColor=none;fillColor=none;" parent="1" vertex="1">
          <mxGeometry x="-725" y="160" width="30" height="30" as="geometry" />
        </mxCell>
        <mxCell id="YQfrQzXwqGvhJNOuVdr6-5" value="" style="endArrow=classic;html=1;rounded=0;strokeWidth=0.5;fillColor=#f8cecc;strokeColor=#b85450;fontStyle=1" parent="1" edge="1">
          <mxGeometry width="50" height="50" relative="1" as="geometry">
            <mxPoint x="-657" y="275" as="sourcePoint" />
            <mxPoint x="-657" y="215" as="targetPoint" />
          </mxGeometry>
        </mxCell>
        <mxCell id="YQfrQzXwqGvhJNOuVdr6-6" value="" style="endArrow=classic;html=1;rounded=0;strokeWidth=0.5;fillColor=#f8cecc;strokeColor=#b85450;" parent="1" edge="1">
          <mxGeometry width="50" height="50" relative="1" as="geometry">
            <mxPoint x="-630" y="275" as="sourcePoint" />
            <mxPoint x="-630" y="215" as="targetPoint" />
          </mxGeometry>
        </mxCell>
        <mxCell id="YQfrQzXwqGvhJNOuVdr6-7" value="" style="endArrow=classic;html=1;rounded=0;strokeWidth=0.5;fillColor=#f8cecc;strokeColor=#b85450;" parent="1" edge="1">
          <mxGeometry width="50" height="50" relative="1" as="geometry">
            <mxPoint x="-610" y="295" as="sourcePoint" />
            <mxPoint x="-610" y="360" as="targetPoint" />
          </mxGeometry>
        </mxCell>
        <mxCell id="YQfrQzXwqGvhJNOuVdr6-8" value="" style="endArrow=classic;html=1;rounded=0;strokeWidth=0.5;fillColor=#f8cecc;strokeColor=#b85450;" parent="1" edge="1">
          <mxGeometry width="50" height="50" relative="1" as="geometry">
            <mxPoint x="-590" y="275" as="sourcePoint" />
            <mxPoint x="-590" y="215" as="targetPoint" />
          </mxGeometry>
        </mxCell>
        <mxCell id="YQfrQzXwqGvhJNOuVdr6-9" value="" style="endArrow=classic;html=1;rounded=0;strokeWidth=0.5;fillColor=#f8cecc;strokeColor=#b85450;" parent="1" edge="1">
          <mxGeometry width="50" height="50" relative="1" as="geometry">
            <mxPoint x="-570" y="295" as="sourcePoint" />
            <mxPoint x="-570" y="360" as="targetPoint" />
          </mxGeometry>
        </mxCell>
        <mxCell id="YQfrQzXwqGvhJNOuVdr6-10" value="" style="endArrow=classic;html=1;rounded=0;strokeWidth=0.5;fillColor=#f8cecc;strokeColor=#b85450;" parent="1" edge="1">
          <mxGeometry width="50" height="50" relative="1" as="geometry">
            <mxPoint x="-550" y="295" as="sourcePoint" />
            <mxPoint x="-550" y="360" as="targetPoint" />
          </mxGeometry>
        </mxCell>
        <mxCell id="YQfrQzXwqGvhJNOuVdr6-11" value="" style="endArrow=classic;html=1;rounded=0;strokeWidth=0.5;fillColor=#f8cecc;strokeColor=#b85450;" parent="1" edge="1">
          <mxGeometry width="50" height="50" relative="1" as="geometry">
            <mxPoint x="-530" y="295" as="sourcePoint" />
            <mxPoint x="-530" y="360" as="targetPoint" />
          </mxGeometry>
        </mxCell>
        <mxCell id="YQfrQzXwqGvhJNOuVdr6-12" value="" style="endArrow=classic;html=1;rounded=0;strokeWidth=0.5;fillColor=#f8cecc;strokeColor=#b85450;" parent="1" edge="1">
          <mxGeometry width="50" height="50" relative="1" as="geometry">
            <mxPoint x="-490" y="275" as="sourcePoint" />
            <mxPoint x="-490" y="215" as="targetPoint" />
          </mxGeometry>
        </mxCell>
        <mxCell id="YQfrQzXwqGvhJNOuVdr6-13" value="" style="endArrow=classic;html=1;rounded=0;strokeWidth=0.5;fillColor=#f8cecc;strokeColor=#b85450;" parent="1" edge="1">
          <mxGeometry width="50" height="50" relative="1" as="geometry">
            <mxPoint x="-470" y="275" as="sourcePoint" />
            <mxPoint x="-470" y="215" as="targetPoint" />
          </mxGeometry>
        </mxCell>
        <mxCell id="YQfrQzXwqGvhJNOuVdr6-14" value="" style="endArrow=classic;html=1;rounded=0;strokeWidth=0.5;" parent="1" edge="1">
          <mxGeometry width="50" height="50" relative="1" as="geometry">
            <mxPoint x="-440" y="165" as="sourcePoint" />
            <mxPoint x="-480" y="205" as="targetPoint" />
          </mxGeometry>
        </mxCell>
        <mxCell id="YQfrQzXwqGvhJNOuVdr6-15" value="&lt;b&gt;&lt;font color=&quot;#ff8000&quot; style=&quot;font-size: 14px;&quot;&gt;Classical Bit&lt;/font&gt;&lt;/b&gt;" style="text;html=1;align=center;verticalAlign=middle;resizable=0;points=[];autosize=1;strokeColor=none;fillColor=none;" parent="1" vertex="1">
          <mxGeometry x="-480" y="130" width="110" height="30" as="geometry" />
        </mxCell>
        <mxCell id="YQfrQzXwqGvhJNOuVdr6-16" value="&lt;b&gt;&lt;font color=&quot;#ff8000&quot;&gt;Number of Bit&lt;/font&gt;&lt;/b&gt;" style="text;html=1;align=center;verticalAlign=middle;resizable=0;points=[];autosize=1;strokeColor=none;fillColor=none;fontSize=14;fontColor=#0000FF;" parent="1" vertex="1">
          <mxGeometry x="-400" y="270" width="120" height="30" as="geometry" />
        </mxCell>
        <mxCell id="YQfrQzXwqGvhJNOuVdr6-17" value="" style="shape=flexArrow;endArrow=classic;startArrow=classic;html=1;rounded=0;fillColor=#dae8fc;strokeColor=#6c8ebf;" parent="1" edge="1">
          <mxGeometry width="100" height="100" relative="1" as="geometry">
            <mxPoint x="-690" y="690" as="sourcePoint" />
            <mxPoint x="-690" y="470" as="targetPoint" />
          </mxGeometry>
        </mxCell>
        <mxCell id="YQfrQzXwqGvhJNOuVdr6-18" value="" style="shape=flexArrow;endArrow=classic;startArrow=classic;html=1;rounded=0;strokeWidth=0.5;fillColor=#dae8fc;strokeColor=#6c8ebf;" parent="1" edge="1">
          <mxGeometry width="100" height="100" relative="1" as="geometry">
            <mxPoint x="-350" y="690" as="sourcePoint" />
            <mxPoint x="-730" y="550" as="targetPoint" />
          </mxGeometry>
        </mxCell>
        <mxCell id="YQfrQzXwqGvhJNOuVdr6-19" value="&lt;b&gt;&lt;font color=&quot;#ff8000&quot;&gt;|0&amp;gt;&lt;/font&gt;&lt;/b&gt;" style="text;html=1;align=center;verticalAlign=middle;resizable=0;points=[];autosize=1;strokeColor=none;fillColor=none;fontSize=14;fontColor=#0000FF;" parent="1" vertex="1">
          <mxGeometry x="-740" y="670" width="40" height="30" as="geometry" />
        </mxCell>
        <mxCell id="YQfrQzXwqGvhJNOuVdr6-20" value="&lt;b&gt;&lt;font color=&quot;#ff8000&quot;&gt;|1&amp;gt;&lt;/font&gt;&lt;/b&gt;" style="text;html=1;align=center;verticalAlign=middle;resizable=0;points=[];autosize=1;strokeColor=none;fillColor=none;fontSize=14;fontColor=#0000FF;" parent="1" vertex="1">
          <mxGeometry x="-730" y="445" width="40" height="30" as="geometry" />
        </mxCell>
        <mxCell id="YQfrQzXwqGvhJNOuVdr6-21" value="" style="ellipse;whiteSpace=wrap;html=1;labelBorderColor=#7EA6E0;fontSize=14;rotation=-45;fillColor=none;strokeColor=#6c8ebf;" parent="1" vertex="1">
          <mxGeometry x="-680" y="565" width="40" height="20" as="geometry" />
        </mxCell>
        <mxCell id="YQfrQzXwqGvhJNOuVdr6-22" value="" style="ellipse;whiteSpace=wrap;html=1;labelBorderColor=#7EA6E0;fontSize=14;rotation=-45;fillColor=none;strokeColor=#6c8ebf;" parent="1" vertex="1">
          <mxGeometry x="-630" y="585" width="40" height="20" as="geometry" />
        </mxCell>
        <mxCell id="YQfrQzXwqGvhJNOuVdr6-24" style="edgeStyle=orthogonalEdgeStyle;rounded=0;orthogonalLoop=1;jettySize=auto;html=1;exitX=0.5;exitY=1;exitDx=0;exitDy=0;fontSize=14;fontColor=#54FF60;strokeWidth=0.5;" parent="1" source="YQfrQzXwqGvhJNOuVdr6-25" edge="1">
          <mxGeometry relative="1" as="geometry">
            <mxPoint x="-500" y="642" as="targetPoint" />
          </mxGeometry>
        </mxCell>
        <mxCell id="YQfrQzXwqGvhJNOuVdr6-25" value="" style="ellipse;whiteSpace=wrap;html=1;labelBorderColor=#7EA6E0;fontSize=14;rotation=-45;fillColor=none;strokeColor=#6c8ebf;" parent="1" vertex="1">
          <mxGeometry x="-530" y="625" width="40" height="20" as="geometry" />
        </mxCell>
        <mxCell id="YQfrQzXwqGvhJNOuVdr6-26" value="" style="ellipse;whiteSpace=wrap;html=1;labelBorderColor=#7EA6E0;fontSize=14;rotation=-45;fillColor=none;strokeColor=#6c8ebf;" parent="1" vertex="1">
          <mxGeometry x="-480" y="645" width="40" height="20" as="geometry" />
        </mxCell>
        <mxCell id="YQfrQzXwqGvhJNOuVdr6-27" value="" style="ellipse;whiteSpace=wrap;html=1;labelBorderColor=#7EA6E0;fontSize=14;rotation=-45;fillColor=none;strokeColor=#6c8ebf;" parent="1" vertex="1">
          <mxGeometry x="-430" y="665" width="40" height="20" as="geometry" />
        </mxCell>
        <mxCell id="YQfrQzXwqGvhJNOuVdr6-28" value="" style="endArrow=classic;html=1;rounded=0;strokeWidth=0.5;fillColor=#f8cecc;strokeColor=#b85450;" parent="1" edge="1">
          <mxGeometry width="50" height="50" relative="1" as="geometry">
            <mxPoint x="-660" y="580" as="sourcePoint" />
            <mxPoint x="-650" y="560" as="targetPoint" />
          </mxGeometry>
        </mxCell>
        <mxCell id="YQfrQzXwqGvhJNOuVdr6-29" value="" style="endArrow=classic;html=1;rounded=0;strokeWidth=0.5;fillColor=#f8cecc;strokeColor=#b85450;entryX=0;entryY=1;entryDx=0;entryDy=0;" parent="1" edge="1" target="YQfrQzXwqGvhJNOuVdr6-22">
          <mxGeometry width="50" height="50" relative="1" as="geometry">
            <mxPoint x="-610" y="585" as="sourcePoint" />
            <mxPoint x="-590" y="585" as="targetPoint" />
          </mxGeometry>
        </mxCell>
        <mxCell id="FX2FilpnR09kNmvKCk30-1" value="&lt;b style=&quot;font-size: 14px;&quot;&gt;&lt;font color=&quot;#ff8000&quot;&gt;Number of Bit&lt;/font&gt;&lt;/b&gt;" style="text;html=1;align=center;verticalAlign=middle;resizable=0;points=[];autosize=1;strokeColor=none;fillColor=none;" vertex="1" parent="1">
          <mxGeometry x="-400" y="700" width="120" height="30" as="geometry" />
        </mxCell>
        <mxCell id="FX2FilpnR09kNmvKCk30-2" value="" style="endArrow=classic;html=1;rounded=0;strokeWidth=0.5;" edge="1" parent="1">
          <mxGeometry width="50" height="50" relative="1" as="geometry">
            <mxPoint x="-550" y="535" as="sourcePoint" />
            <mxPoint x="-590" y="575" as="targetPoint" />
          </mxGeometry>
        </mxCell>
        <mxCell id="FX2FilpnR09kNmvKCk30-3" value="&lt;b&gt;&lt;font color=&quot;#ff8000&quot; style=&quot;font-size: 14px;&quot;&gt;Quantum Bit&lt;/font&gt;&lt;/b&gt;" style="text;html=1;align=center;verticalAlign=middle;resizable=0;points=[];autosize=1;strokeColor=none;fillColor=none;" vertex="1" parent="1">
          <mxGeometry x="-590" y="500" width="110" height="30" as="geometry" />
        </mxCell>
        <mxCell id="FX2FilpnR09kNmvKCk30-4" value="" style="ellipse;whiteSpace=wrap;html=1;labelBorderColor=#7EA6E0;fontSize=14;rotation=-45;fillColor=none;strokeColor=#6c8ebf;" vertex="1" parent="1">
          <mxGeometry x="-580" y="605" width="40" height="20" as="geometry" />
        </mxCell>
        <mxCell id="FX2FilpnR09kNmvKCk30-7" value="" style="endArrow=classic;html=1;rounded=0;strokeWidth=0.5;fillColor=#f8cecc;strokeColor=#b85450;entryX=0;entryY=0;entryDx=0;entryDy=0;exitX=1;exitY=1;exitDx=0;exitDy=0;" edge="1" parent="1" source="FX2FilpnR09kNmvKCk30-4" target="FX2FilpnR09kNmvKCk30-4">
          <mxGeometry width="50" height="50" relative="1" as="geometry">
            <mxPoint x="-560" y="615" as="sourcePoint" />
            <mxPoint x="-550" y="600" as="targetPoint" />
          </mxGeometry>
        </mxCell>
        <mxCell id="FX2FilpnR09kNmvKCk30-9" value="" style="endArrow=classic;html=1;rounded=0;strokeWidth=0.5;fillColor=#f8cecc;strokeColor=#b85450;entryX=0.5;entryY=1;entryDx=0;entryDy=0;" edge="1" parent="1" target="YQfrQzXwqGvhJNOuVdr6-25">
          <mxGeometry width="50" height="50" relative="1" as="geometry">
            <mxPoint x="-510" y="620" as="sourcePoint" />
            <mxPoint x="-500" y="630" as="targetPoint" />
          </mxGeometry>
        </mxCell>
        <mxCell id="FX2FilpnR09kNmvKCk30-10" value="" style="endArrow=classic;html=1;rounded=0;strokeWidth=0.5;fillColor=#f8cecc;strokeColor=#b85450;exitX=1;exitY=1;exitDx=0;exitDy=0;" edge="1" parent="1" source="YQfrQzXwqGvhJNOuVdr6-26">
          <mxGeometry width="50" height="50" relative="1" as="geometry">
            <mxPoint x="-445" y="635" as="sourcePoint" />
            <mxPoint x="-475" y="665" as="targetPoint" />
          </mxGeometry>
        </mxCell>
        <mxCell id="FX2FilpnR09kNmvKCk30-11" value="" style="endArrow=classic;html=1;rounded=0;strokeWidth=0.5;fillColor=#f8cecc;strokeColor=#b85450;entryX=0.5;entryY=0;entryDx=0;entryDy=0;" edge="1" parent="1" target="YQfrQzXwqGvhJNOuVdr6-27">
          <mxGeometry width="50" height="50" relative="1" as="geometry">
            <mxPoint x="-400" y="680" as="sourcePoint" />
            <mxPoint x="-420" y="680" as="targetPoint" />
          </mxGeometry>
        </mxCell>
      </root>
    </mxGraphModel>
  </diagram>
</mxfile>
